<?xml version="1.0" standalone="no"?>
<!DOCTYPE svg PUBLIC "-//W3C//DTD SVG 20010904//EN"
 "http://www.w3.org/TR/2001/REC-SVG-20010904/DTD/svg10.dtd">
<svg version="1.0" xmlns="http://www.w3.org/2000/svg"
 width="672.000000pt" height="107.000000pt" viewBox="0 0 672.000000 107.000000"
 preserveAspectRatio="xMidYMid meet">

<g transform="translate(0.000000,107.000000) scale(0.100000,-0.100000)"
fill="#000000" stroke="none">
<path d="M5194 1060 c-41 -13 -104 -82 -106 -118 -4 -73 20 -139 59 -161 14
-8 14 -12 -4 -37 -11 -16 -22 -38 -24 -49 -3 -16 -10 -11 -31 26 -57 98 -158
169 -288 205 -82 23 -313 25 -415 5 -57 -11 -77 -21 -107 -51 -40 -40 -54 -88
-43 -147 8 -45 61 -101 104 -109 36 -8 38 -13 45 -189 l5 -120 -32 -20 c-90
-56 -87 -189 7 -259 23 -18 45 -21 146 -24 66 -2 151 1 191 7 169 27 320 102
389 194 19 25 36 44 38 42 2 -2 10 -36 19 -76 26 -129 64 -161 198 -166 81 -3
94 -1 118 17 15 12 27 28 27 36 0 20 17 18 47 -6 41 -32 119 -50 215 -50 104
0 174 21 248 74 l49 35 21 -34 c31 -50 89 -73 184 -73 74 -1 81 1 107 28 16
16 29 38 29 49 0 26 5 26 42 -1 36 -25 162 -40 216 -26 63 17 82 90 43 164
-12 21 -21 43 -21 49 0 6 -13 27 -30 47 l-30 36 20 44 c25 55 25 99 1 146 -11
20 -25 50 -32 66 -8 16 -29 40 -48 55 -27 21 -45 26 -91 26 -34 0 -64 -6 -74
-14 -14 -12 -16 -10 -16 13 0 15 -8 44 -19 64 -10 20 -27 54 -36 75 -35 73
-131 105 -207 68 -53 -25 -76 -63 -86 -138 l-7 -58 -13 42 c-45 151 -288 144
-446 -13 -28 -29 -60 -68 -71 -88 -11 -20 -22 -36 -25 -36 -3 0 -14 17 -24 38
-9 20 -25 53 -35 73 -17 35 -17 36 6 63 27 32 30 84 8 124 -8 15 -21 43 -29
63 -27 70 -117 111 -192 89z m96 -65 c37 -19 50 -43 50 -90 0 -102 -141 -131
-185 -38 -21 44 -12 85 27 118 34 29 66 32 108 10z m-533 -121 c139 -28 239
-98 290 -203 25 -51 28 -66 28 -161 -1 -95 -3 -111 -29 -163 -78 -161 -271
-261 -528 -274 l-107 -6 -30 31 c-57 57 -33 149 44 168 l27 7 -6 96 c-3 53 -9
144 -12 202 l-6 105 -28 -4 c-32 -5 -85 20 -100 47 -18 34 -12 88 14 117 18
22 38 30 92 40 99 17 262 17 351 -2z m1487 -46 c31 -32 33 -38 40 -133 4 -55
9 -126 13 -158 l6 -58 22 21 c13 12 30 41 40 66 43 114 196 88 195 -33 0 -32
-33 -109 -58 -136 -16 -18 -14 -20 28 -55 78 -64 90 -81 90 -127 0 -59 -36
-95 -95 -95 -37 0 -51 8 -126 71 l-84 72 -11 -74 c-9 -59 -16 -77 -38 -96 -38
-32 -87 -31 -127 5 l-30 27 -4 180 c-2 99 -8 240 -15 314 -14 155 -9 192 27
221 40 31 89 26 127 -12z m-344 -43 c87 -45 56 -185 -41 -185 -51 0 -88 -15
-127 -53 -57 -55 -89 -182 -62 -251 18 -47 78 -31 165 44 36 31 54 40 83 40
58 -1 102 -47 102 -106 0 -38 -97 -132 -175 -169 -124 -58 -240 -43 -315 42
-112 127 -87 378 53 530 94 103 235 150 317 108z m-595 -49 c53 -23 62 -52 70
-231 3 -88 13 -202 22 -253 16 -103 10 -139 -31 -167 -32 -23 -89 -19 -119 9
-43 40 -61 142 -72 416 -7 161 -7 166 15 193 20 26 50 45 73 46 4 1 23 -5 42
-13z m737 -263 l4 -91 -31 24 c-64 48 -138 44 -204 -12 -23 -20 -44 -34 -47
-31 -11 11 16 73 48 111 36 44 81 66 136 66 24 0 46 7 58 19 10 10 22 16 25
12 4 -3 9 -47 11 -98z"/>
<path d="M4624 663 c3 -16 10 -104 16 -198 6 -93 12 -170 13 -172 7 -6 112 38
146 61 96 67 109 223 23 284 -32 23 -129 52 -175 52 -26 0 -28 -3 -23 -27z
m141 -57 c42 -18 55 -42 55 -102 0 -41 -4 -51 -42 -88 l-43 -41 -7 85 c-3 47
-9 102 -11 123 -6 41 -1 43 48 23z"/>
<path d="M217 940 c-102 -16 -134 -29 -166 -65 -55 -63 -54 -154 4 -212 18
-18 47 -36 64 -39 36 -8 38 -13 45 -189 l5 -120 -32 -20 c-90 -56 -87 -189 7
-259 25 -19 41 -21 189 -21 181 1 263 17 385 77 62 31 149 104 170 143 9 18
14 15 57 -33 59 -66 113 -97 192 -113 87 -16 207 -8 258 19 40 20 118 95 127
122 3 9 19 -3 48 -34 82 -89 179 -123 327 -114 93 6 142 28 198 90 l40 43 31
-45 c17 -25 53 -62 80 -82 82 -63 116 -71 323 -75 199 -4 219 0 243 52 l11 24
33 -26 c52 -39 101 -52 202 -53 90 0 95 1 123 29 17 17 29 40 29 55 l0 25 50
-34 c86 -58 137 -70 296 -70 l141 0 86 43 c116 57 139 100 99 181 -10 20 -27
54 -38 76 -11 23 -34 48 -55 60 l-36 20 33 49 c52 74 50 121 -6 241 -35 73
-48 90 -97 125 -112 80 -237 90 -362 29 -85 -42 -179 -135 -219 -219 l-31 -65
-1 74 c0 51 -6 85 -18 110 -10 20 -27 54 -38 76 -39 81 -144 111 -221 64 l-34
-21 -24 26 c-30 33 -64 46 -118 46 -82 0 -141 -60 -153 -156 -6 -51 -7 -52
-45 -58 -75 -12 -148 -47 -203 -97 l-54 -49 -22 55 c-28 70 -100 147 -165 177
-69 31 -199 32 -266 2 -58 -27 -113 -75 -153 -136 l-33 -48 -15 33 c-48 97
-150 165 -261 174 -117 10 -220 -38 -295 -137 -19 -25 -37 -46 -41 -47 -3 -2
-18 23 -33 55 -49 106 -157 190 -293 227 -71 19 -285 28 -368 15z m310 -65
c151 -29 247 -97 302 -214 22 -48 26 -69 26 -151 0 -83 -4 -103 -29 -157 -77
-168 -292 -276 -549 -278 -96 0 -99 1 -123 28 -45 53 -23 136 42 157 l37 12
-7 127 c-4 69 -9 161 -13 203 -5 75 -6 78 -28 72 -32 -8 -90 21 -104 52 -25
56 -6 111 46 133 75 31 280 39 400 16z m2165 -35 l30 -30 -9 -123 c-12 -185
-10 -393 6 -464 11 -50 11 -68 1 -92 -18 -43 -54 -64 -99 -57 -20 4 -52 6 -71
4 -152 -11 -224 9 -299 83 -109 109 -120 276 -25 387 43 50 137 98 221 113 68
12 64 6 78 113 9 65 40 96 95 96 33 0 48 -6 72 -30z m248 -15 c30 -19 38 -64
43 -275 7 -234 11 -269 36 -277 55 -17 74 -29 86 -54 19 -35 19 -63 1 -98 -43
-82 -190 -62 -255 36 -51 76 -65 166 -65 415 -1 214 -1 216 23 242 13 14 33
26 45 28 21 4 67 -5 86 -17z m632 -21 c53 -17 122 -73 143 -115 17 -33 20
-106 4 -146 -25 -66 -138 -151 -259 -193 -36 -13 -69 -27 -74 -31 -5 -5 12
-18 39 -30 63 -28 126 -22 205 20 73 38 99 39 138 6 62 -52 50 -118 -32 -173
-207 -138 -481 -65 -584 156 -23 49 -27 70 -27 147 1 78 4 98 28 147 46 95
148 184 242 214 55 17 123 17 177 -2z m-2239 -58 c116 -57 176 -206 133 -335
-9 -27 -16 -58 -16 -68 0 -11 -13 -39 -29 -64 -118 -187 -366 -179 -469 16
-23 43 -27 62 -27 135 0 74 4 93 31 150 42 88 74 123 147 160 54 28 70 31 127
28 36 -2 82 -12 103 -22z m596 9 c132 -46 203 -203 157 -344 -9 -27 -16 -58
-16 -68 0 -29 -52 -105 -96 -141 -174 -145 -434 -7 -434 230 0 98 61 226 134
282 72 54 172 71 255 41z"/>
<path d="M404 644 c4 -27 11 -116 16 -198 5 -81 11 -150 13 -153 3 -2 28 5 57
16 121 46 170 105 170 204 0 99 -69 160 -199 173 l-63 7 6 -49z m141 -38 c42
-18 55 -42 55 -102 0 -41 -4 -51 -42 -88 l-43 -41 -7 85 c-3 47 -9 102 -11
123 -6 41 -1 43 48 23z"/>
<path d="M2437 456 c-56 -20 -77 -43 -77 -84 0 -48 54 -102 103 -102 20 0 38
3 40 8 10 15 -6 192 -17 192 -6 -1 -28 -7 -49 -14z"/>
<path d="M3408 593 c-81 -67 -78 -89 6 -53 61 26 108 59 101 71 -13 19 -73 9
-107 -18z"/>
<path d="M1177 559 c-27 -16 -57 -84 -57 -129 0 -45 34 -90 67 -90 26 0 61 27
78 60 22 42 20 133 -3 153 -21 19 -58 22 -85 6z"/>
<path d="M1797 559 c-26 -15 -57 -86 -57 -132 0 -43 35 -87 71 -87 48 0 89 75
89 166 0 53 -55 81 -103 53z"/>
</g>
</svg>
